<svg width="78" height="12" viewBox="0 0 78 12" fill="none" xmlns="http://www.w3.org/2000/svg">
<path d="M5.74636 10.9408L3.54636 11.8408C3.04636 12.0408 2.44636 11.8408 2.24636 11.3408C2.14636 11.1408 2.14636 11.0408 2.14636 10.8408L2.34636 8.44082C2.34636 8.14082 2.24636 7.94082 2.14636 7.74082L0.546363 5.94082C0.246363 5.54082 0.246363 4.84082 0.646363 4.54082C0.846363 4.44082 0.946363 4.34082 1.14636 4.34082L3.44636 3.84082C3.74636 3.74082 3.94636 3.64082 4.04636 3.34082L5.24636 1.34082C5.54636 0.84082 6.14636 0.74082 6.64636 1.04082C6.74636 1.14082 6.94636 1.24082 6.94636 1.34082L8.14636 3.34082C8.24636 3.54082 8.54636 3.74082 8.74636 3.84082L11.1464 4.34082C11.6464 4.44082 12.0464 5.04082 11.8464 5.54082C11.8464 5.74082 11.7464 5.84082 11.6464 5.94082L10.1464 7.74082C9.94636 7.94082 9.84636 8.24082 9.94636 8.44082L10.1464 10.8408C10.1464 11.4408 9.74636 11.8408 9.24636 11.9408C9.04636 11.9408 8.94636 11.9408 8.74636 11.8408L6.54636 10.9408C6.24636 10.8408 6.04636 10.8408 5.74636 10.9408Z" fill="url(#paint0_linear_32_2812)"/>
<path d="M22.0628 10.9408L19.8628 11.8408C19.3628 12.0408 18.7628 11.8408 18.5628 11.3408C18.4628 11.1408 18.4628 11.0408 18.4628 10.8408L18.6628 8.44082C18.6628 8.14082 18.5628 7.94082 18.4628 7.74082L16.8628 5.94082C16.5628 5.54082 16.5628 4.84082 16.9628 4.54082C17.1628 4.44082 17.2628 4.34082 17.4628 4.34082L19.7628 3.84082C20.0628 3.74082 20.2628 3.64082 20.3628 3.34082L21.5628 1.34082C21.8628 0.84082 22.4628 0.74082 22.9628 1.04082C23.0628 1.14082 23.2628 1.24082 23.2628 1.34082L24.4628 3.34082C24.5628 3.54082 24.8628 3.74082 25.0628 3.84082L27.4628 4.34082C27.9628 4.44082 28.3628 5.04082 28.1628 5.54082C28.1628 5.74082 28.0628 5.84082 27.9628 5.94082L26.4628 7.74082C26.2628 7.94082 26.1628 8.24082 26.2628 8.44082L26.4628 10.8408C26.4628 11.4408 26.0628 11.8408 25.5628 11.9408C25.3628 11.9408 25.2628 11.9408 25.0628 11.8408L22.8628 10.9408C22.5628 10.8408 22.3628 10.8408 22.0628 10.9408Z" fill="url(#paint1_linear_32_2812)"/>
<path d="M38.3792 10.9408L36.1792 11.8408C35.6792 12.0408 35.0792 11.8408 34.8792 11.3408C34.7792 11.1408 34.7792 11.0408 34.7792 10.8408L34.9792 8.44082C34.9792 8.14082 34.8792 7.94082 34.7792 7.74082L33.1792 5.94082C32.8792 5.54082 32.8792 4.84082 33.2792 4.54082C33.4792 4.44082 33.5792 4.34082 33.7792 4.34082L36.0792 3.84082C36.3792 3.74082 36.5792 3.64082 36.6792 3.34082L37.8792 1.34082C38.1792 0.84082 38.7792 0.74082 39.2792 1.04082C39.3792 1.14082 39.5792 1.24082 39.5792 1.34082L40.7792 3.34082C40.8792 3.54082 41.1792 3.74082 41.3792 3.84082L43.7792 4.34082C44.2792 4.44082 44.6792 5.04082 44.4792 5.54082C44.4792 5.74082 44.3792 5.84082 44.2792 5.94082L42.7792 7.74082C42.5792 7.94082 42.4792 8.24082 42.5792 8.44082L42.7792 10.8408C42.7792 11.4408 42.3792 11.8408 41.8792 11.9408C41.6792 11.9408 41.5792 11.9408 41.3792 11.8408L39.1792 10.9408C38.8792 10.8408 38.6792 10.8408 38.3792 10.9408Z" fill="url(#paint2_linear_32_2812)"/>
<path d="M54.6956 10.9408L52.4956 11.8408C51.9956 12.0408 51.3956 11.8408 51.1956 11.3408C51.0956 11.1408 51.0956 11.0408 51.0956 10.8408L51.2956 8.44082C51.2956 8.14082 51.1956 7.94082 51.0956 7.74082L49.4956 5.94082C49.1956 5.54082 49.1956 4.84082 49.5956 4.54082C49.7956 4.44082 49.8956 4.34082 50.0956 4.34082L52.3956 3.84082C52.6956 3.74082 52.8956 3.64082 52.9956 3.34082L54.1956 1.34082C54.4956 0.84082 55.0956 0.74082 55.5956 1.04082C55.6956 1.14082 55.8956 1.24082 55.8956 1.34082L57.0956 3.34082C57.1956 3.54082 57.4956 3.74082 57.6956 3.84082L60.0956 4.34082C60.5956 4.44082 60.9956 5.04082 60.7956 5.54082C60.7956 5.74082 60.6956 5.84082 60.5956 5.94082L59.0956 7.74082C58.8956 7.94082 58.7956 8.24082 58.8956 8.44082L59.0956 10.8408C59.0956 11.4408 58.6956 11.8408 58.1956 11.9408C57.9956 11.9408 57.8956 11.9408 57.6956 11.8408L55.4956 10.9408C55.1956 10.8408 54.9956 10.8408 54.6956 10.9408Z" fill="url(#paint3_linear_32_2812)"/>
<path d="M71.012 10.9408L68.812 11.8408C68.312 12.0408 67.712 11.8408 67.512 11.3408C67.412 11.1408 67.412 11.0408 67.412 10.8408L67.612 8.44082C67.612 8.14082 67.512 7.94082 67.412 7.74082L65.812 5.94082C65.512 5.54082 65.512 4.84082 65.912 4.54082C66.112 4.44082 66.212 4.34082 66.412 4.34082L68.712 3.84082C69.012 3.74082 69.212 3.64082 69.312 3.34082L70.512 1.34082C70.812 0.84082 71.412 0.74082 71.912 1.04082C72.012 1.14082 72.212 1.24082 72.212 1.34082L73.412 3.34082C73.512 3.54082 73.812 3.74082 74.012 3.84082L76.412 4.34082C76.912 4.44082 77.312 5.04082 77.112 5.54082C77.112 5.74082 77.012 5.84082 76.912 5.94082L75.412 7.74082C75.212 7.94082 75.112 8.24082 75.212 8.44082L75.412 10.8408C75.412 11.4408 75.012 11.8408 74.512 11.9408C74.312 11.9408 74.212 11.9408 74.012 11.8408L71.812 10.9408C71.512 10.8408 71.312 10.8408 71.012 10.9408Z" fill="url(#paint4_linear_32_2812)"/>
<defs>
<linearGradient id="paint0_linear_32_2812" x1="6.69406" y1="-0.870233" x2="7.29172" y2="18.7395" gradientUnits="userSpaceOnUse">
<stop stop-color="#FD749B"/>
<stop offset="1" stop-color="#281AC8"/>
</linearGradient>
<linearGradient id="paint1_linear_32_2812" x1="23.0105" y1="-0.870233" x2="23.6081" y2="18.7395" gradientUnits="userSpaceOnUse">
<stop stop-color="#FD749B"/>
<stop offset="1" stop-color="#281AC8"/>
</linearGradient>
<linearGradient id="paint2_linear_32_2812" x1="39.3269" y1="-0.870233" x2="39.9245" y2="18.7395" gradientUnits="userSpaceOnUse">
<stop stop-color="#FD749B"/>
<stop offset="1" stop-color="#281AC8"/>
</linearGradient>
<linearGradient id="paint3_linear_32_2812" x1="55.6433" y1="-0.870233" x2="56.2409" y2="18.7395" gradientUnits="userSpaceOnUse">
<stop stop-color="#FD749B"/>
<stop offset="1" stop-color="#281AC8"/>
</linearGradient>
<linearGradient id="paint4_linear_32_2812" x1="71.9597" y1="-0.870233" x2="72.5573" y2="18.7395" gradientUnits="userSpaceOnUse">
<stop stop-color="#FD749B"/>
<stop offset="1" stop-color="#281AC8"/>
</linearGradient>
</defs>
</svg>
