<svg width="24" height="25" viewBox="0 0 24 25" fill="none" xmlns="http://www.w3.org/2000/svg">
<path d="M12.0093 0.683476C5.38144 0.677898 0.00558247 6.04635 4.34305e-06 12.6742C-0.00557378 19.302 5.36288 24.6779 11.9907 24.6835C18.6177 24.6779 23.9898 19.3104 24 12.6835C24 6.05934 18.6334 0.689054 12.0093 0.683476ZM11.9907 22.6866C6.46627 22.6866 1.98765 18.2079 1.98765 12.6835C1.98765 7.15902 6.46627 2.6804 11.9907 2.6804C17.5133 2.68598 21.9882 7.1609 21.9938 12.6835C21.9938 18.2079 17.5152 22.6866 11.9907 22.6866Z" fill="url(#paint0_linear_32_2803)"/>
<path d="M15.2315 12.0986C16.034 11.6463 16.4678 10.7407 16.3182 9.83233C16.1325 8.42988 14.4607 7.90043 13.1417 7.78901V5.68066H11.8414V7.77044H10.9684V5.68066H9.66806V7.77044H7.04883V9.11721H8.02406C8.46061 9.11721 8.67422 9.24724 8.67422 9.60016V15.3866C8.67422 15.8695 8.43272 16.0181 8.17266 16.0181H7.17886V17.3928H9.70519V19.529H11.0148V17.3928H11.8878V19.529H13.1603V17.3928H13.4389C16.1138 17.3928 17.0055 16.0832 17.0055 14.2999C16.9841 13.2484 16.255 12.3438 15.2315 12.0986ZM10.9683 9.20079H11.8971C12.5473 9.20079 13.829 9.31226 13.829 10.3711C13.8736 11.0621 13.373 11.6677 12.6866 11.755H10.9683V9.20079ZM12.408 15.8881V15.8788H10.9683V13.0924H12.6402C13.0303 13.0924 14.4977 13.2224 14.4977 14.2627C14.4977 15.3029 13.8012 15.8881 12.408 15.8881Z" fill="url(#paint1_linear_32_2803)"/>
<defs>
<linearGradient id="paint0_linear_32_2803" x1="13.2" y1="-3.09431" x2="14.554" y2="39.4212" gradientUnits="userSpaceOnUse">
<stop stop-color="#FD749B"/>
<stop offset="1" stop-color="#281AC8"/>
</linearGradient>
<linearGradient id="paint1_linear_32_2803" x1="12.525" y1="3.50084" x2="13.6106" y2="28.0096" gradientUnits="userSpaceOnUse">
<stop stop-color="#FD749B"/>
<stop offset="1" stop-color="#281AC8"/>
</linearGradient>
</defs>
</svg>
