<svg width="100" height="100" fill="none" xmlns="http://www.w3.org/2000/svg"><g filter="url('#filter0_d_482_5917')" fill="#FF4343"><path d="M67.108 63.2H49.65a2.083 2.083 0 0 1 0-4.167h17.458a2.083 2.083 0 0 1 0 4.167ZM78.858 61.908a1.625 1.625 0 0 1-.75 0 2.04 2.04 0 0 1-1.208-2.666l9.917-26.5a2.083 2.083 0 0 1 2.666-1.209 2.167 2.167 0 0 1 1.25 2.709l-9.916 26.375a2.168 2.168 0 0 1-1.959 1.291ZM36.317 62.7a2.041 2.041 0 0 1-1.959-1.417l-13.083-39.75h-12.5a2.083 2.083 0 0 1-2.083-2.083 2.125 2.125 0 0 1 2.083-2.083h14a2.125 2.125 0 0 1 1.958 1.416L38.442 59.95a2.042 2.042 0 0 1-1.292 2.625c-.265.104-.55.147-.833.125Z"/><path d="M42.733 81.45a12.5 12.5 0 1 1 0-24.998 12.5 12.5 0 0 1 0 24.998Zm0-20.833a8.334 8.334 0 1 0 0 16.668 8.334 8.334 0 0 0 0-16.668ZM74.025 81.45a12.5 12.5 0 1 1 0-25 12.5 12.5 0 0 1 0 25Zm0-20.833a8.334 8.334 0 1 0 0 16.668 8.334 8.334 0 0 0 0-16.668Z"/></g><defs><filter id="filter0_d_482_5917" x="-4" y="0" width="108" height="108" filterUnits="userSpaceOnUse" color-interpolation-filters="sRGB"><feFlood flood-opacity="0" result="BackgroundImageFix"/><feColorMatrix in="SourceAlpha" values="0 0 0 0 0 0 0 0 0 0 0 0 0 0 0 0 0 0 127 0" result="hardAlpha"/><feOffset dy="4"/><feGaussianBlur stdDeviation="2"/><feComposite in2="hardAlpha" operator="out"/><feColorMatrix values="0 0 0 0 0 0 0 0 0 0 0 0 0 0 0 0 0 0 0.25 0"/><feBlend in2="BackgroundImageFix" result="effect1_dropShadow_482_5917"/><feBlend in="SourceGraphic" in2="effect1_dropShadow_482_5917" result="shape"/></filter></defs></svg>